<svg version="1.1" xmlns="http://www.w3.org/2000/svg" xmlns:xlink="http://www.w3.org/1999/xlink" viewBox="0 0 172 172"><g fill="none" fill-rule="nonzero" stroke="none" stroke-width="1" stroke-linecap="butt" stroke-linejoin="miter" stroke-miterlimit="10" stroke-dasharray="" stroke-dashoffset="0" font-family="none" font-weight="none" font-size="none" text-anchor="none" style="mix-blend-mode: normal"><path d="M0,172v-172h172v172z" fill="none"></path><g fill="#121212"><path d="M153.4928,45.1672c-0.7912,-0.7224 -1.7888,-1.1352 -2.8552,-1.1352c-0.0688,0 -0.172,0.0344 -0.2752,0.0344l-102.7184,6.6048c-2.1672,0.1376 -3.8872,1.9952 -3.8872,4.1624v98.9c0,1.1696 0.4816,2.236 1.3072,3.0272c0.86,0.7912 1.9608,1.204 3.1304,1.1352l102.7184,-6.6392c2.2016,-0.1376 3.8872,-1.9608 3.8872,-4.1624v-98.8656c0,-1.1696 -0.4472,-2.2704 -1.3072,-3.0616zM131.0984,71.9648c-2.064,0.6536 -2.7176,0.688 -2.7176,0.688v59.3056c-3.5088,1.892 -6.3984,2.7864 -9.4256,2.7864c-3.6808,0 -5.7792,-0.8256 -8.6,-5.16c-5.9856,-9.2536 -25.4904,-40.6264 -25.4904,-40.6264v39.388l7.6712,1.6168c0,0 -0.2064,4.472 -6.9144,4.988c-5.8824,0.4472 -18.7136,1.1008 -18.7136,1.1008c0,-1.6168 0.344,-3.8528 2.8896,-4.5064c1.204,-0.3096 4.816,-1.2728 4.816,-1.2728v-53.148h-7.7056c0,-3.5432 1.032,-6.2952 4.7472,-6.5704l19.9176,-1.1352l26.5912,41.0048v-36.4984l-7.7056,-0.6536c0,-3.1992 3.096,-5.16 5.7448,-5.4352l17.3376,-0.9632c0,2.236 -0.1032,4.3344 -2.4424,5.0912zM17.1312,29.3776l19.7456,19.7456v101.6176l-17.6128,-21.1904c-1.4104,-1.9952 -2.1328,-4.3 -2.1328,-6.7424zM146.9568,37.5304l-99.9664,6.2952c-3.4056,0.2408 -6.708,-1.032 -9.116,-3.4056l-16.4088,-16.4432l93.5336,-6.5016c2.7864,-0.2408 5.5728,0.5848 7.8432,2.2704z"></path></g></g></svg>