<svg version="1.1" xmlns="http://www.w3.org/2000/svg" xmlns:xlink="http://www.w3.org/1999/xlink" viewBox="0 0 172 172"><g fill="none" fill-rule="nonzero" stroke="none" stroke-width="1" stroke-linecap="butt" stroke-linejoin="miter" stroke-miterlimit="10" stroke-dasharray="" stroke-dashoffset="0" font-family="none" font-weight="none" font-size="none" text-anchor="none" style="mix-blend-mode: normal"><path d="M0,172v-172h172v172z" fill="none"></path><g fill="#121212"><path d="M121.93187,6.92031c-1.33644,0.04687 -2.6696,0.39517 -3.86328,1.02125c3.1132,1.54112 5.30942,4.58487 5.67062,8.19687c0.06192,0.43344 0.10078,0.82861 0.10078,1.02125v137.6c0,4.07984 -2.38532,7.57644 -5.81844,9.25172c1.25216,0.68456 2.6502,1.06828 4.09844,1.06828c1.28312,0 2.49389,-0.29729 3.58781,-0.79953l0.00672,0.01344c5.53152,-2.86208 33.18691,-17.18302 34.20515,-17.76438c3.20952,-1.8404 5.20031,-5.27841 5.20031,-8.96953v-103.2c0,-3.43312 -1.70028,-6.62673 -4.5486,-8.54625c-1.1008,-0.74648 -34.72922,-18.12047 -34.72922,-18.12047l-0.00672,0.01344c-1.22464,-0.5762 -2.56715,-0.83296 -3.9036,-0.78609zM113.52,13.71969c-0.88021,0 -1.76139,0.33529 -2.43219,1.00781c0,0 -19.69228,22.14532 -41.495,46.64156l25.77984,21.09015l21.58735,-18.18094v-47.11859c0,-0.88064 -0.33701,-1.76139 -1.00781,-2.43219c-0.67252,-0.67252 -1.55198,-1.00781 -2.43219,-1.00781zM27.52,37.79969c-0.53664,0 -1.53472,0.00194 -5.99984,2.06938c-2.4596,1.13864 -11.02547,5.63703 -11.02547,5.63703c-1.1352,0.61576 -2.05094,1.57966 -2.69422,2.69422c0.26144,-0.04128 0.52105,-0.08063 0.79281,-0.08063h0.00672c2.29792,0 3.70714,1.60369 4.20594,2.12313c0,0 97.03316,105.70034 98.28188,106.94906c0.6708,0.6708 1.54483,1.00781 2.42547,1.00781c0.88064,0 1.76139,-0.33701 2.43219,-1.00781c0.6708,-0.6708 1.01453,-1.55155 1.01453,-2.43219v-45.85547c0,0 -84.1639,-68.78758 -84.8175,-69.31735c-1.26592,-1.14896 -2.91282,-1.78719 -4.6225,-1.78719zM7.56531,54.99969c-0.3784,0 -0.68531,0.31019 -0.68531,0.69203v64.00281c0,0.36808 0.30035,0.67187 0.67188,0.67187c0.19264,0 0.36335,-0.08756 0.48375,-0.22172l19.48438,-21.62765v-22.81016l-19.46422,-20.50562c-0.12384,-0.12384 -0.30127,-0.20156 -0.49047,-0.20156zM42.15344,92.2014c0,0 -29.56804,33.19616 -29.90516,33.53328c-0.93224,0.93224 -2.22068,1.505 -3.64828,1.505c-0.26832,0 -0.52809,-0.03262 -0.78609,-0.0739c0.69488,1.20744 1.71393,2.20283 2.97641,2.81515l-0.01344,0.02016c2.9928,1.52048 12.86952,6.53836 14.16984,7.06812c0.81872,0.3268 1.68232,0.49047 2.57328,0.49047c1.19368,0 2.37376,-0.30831 3.43328,-0.91375c0.07912,-0.04472 29.34078,-24.66453 29.34078,-24.66453z"></path></g></g></svg>